<svg width="6464" height="2144" xmlns="http://www.w3.org/2000/svg" preserveAspectRatio="xMidYMid meet" version="1.0">
 <metadata>Created by potrace 1.13, written by Peter Selinger 2001-2015</metadata>

 <g>
  <title>Layer 1</title>
  <text transform="matrix(4.74286 0 0 4.62723 -500.085 -2296)" stroke="#000" xml:space="preserve" text-anchor="start" font-family="'Syne'" font-size="250" id="svg_31" y="745.46627" x="187.75671" stroke-width="0" fill="#000000">Directional</text>
  <path id="svg_34" d="m6250.75024,1172.03644" opacity="NaN" stroke-width="99" stroke="#000" fill="none"/>
  <path id="svg_35" d="m6250.75024,1172.03644" opacity="NaN" stroke-width="99" stroke="#000" fill="none"/>
  <g id="svg_42">
   <line id="svg_40" y2="1363.6765" x2="5948.60932" y1="1380.34372" x1="465.09083" stroke-width="99" stroke="#000" fill="none"/>
   <path transform="rotate(89.7387 5898.41 1364.36)" stroke="#000" id="svg_41" d="m5723.1778,1464.06449l175.23459,-199.39967l175.23458,199.39967l-350.46917,0z" stroke-width="0" fill="#000000"/>
  </g>
  <g transform="rotate(-179.576 3232 1981.05)" id="svg_48">
   <line id="svg_46" y2="1980.36398" x2="5948.61126" y1="1997.03121" x1="465.09277" stroke-width="99" stroke="#000" fill="none"/>
   <path transform="rotate(89.7387 5898.41 1981.05)" stroke="#000" id="svg_47" d="m5723.17974,2080.75198l175.23459,-199.39967l175.23458,199.39967l-350.46917,0z" stroke-width="0" fill="#000000"/>
  </g>
  <g id="svg_54">
   <line stroke="#000" id="svg_49" y2="1680.35386" x2="2898.50834" y1="1697.02109" x1="465.09278" stroke-width="99" fill="none"/>
   <path transform="rotate(89.7387 2964.98 1681.04)" stroke="#000" id="svg_50" d="m2789.74738,1780.74185l175.23459,-199.39967l175.23458,199.39967l-350.46917,0z" stroke-width="0" fill="#000000"/>
  </g>
  <g transform="rotate(-179.955 4698.72 1681.04)" id="svg_60">
   <line stroke="#000" id="svg_58" y2="1680.35386" x2="5831.94068" y1="1697.02109" x1="3398.52512" stroke-width="99" fill="none"/>
   <path transform="rotate(89.7387 5898.41 1681.04)" stroke="#000" id="svg_59" d="m5723.17973,1780.74185l175.23459,-199.39967l175.23458,199.39967l-350.46917,0z" stroke-width="0" fill="#000000"/>
  </g>
 </g>
</svg>